HIERARCHY
ROOT Root
{
  OFFSET 0.0 0.0 0.0
  CHANNELS 6 Xposition Yposition Zposition Zrotation Yrotation Xrotation
  JOINT Hips
  {
    OFFSET 0.0 100.0 0.0
    CHANNELS 6 Xposition Yposition Zposition Zrotation Yrotation Xrotation
    JOINT Spine1
    {
      OFFSET -0.013727 5.003763 -0.053727
      CHANNELS 3 Zrotation Yrotation Xrotation
      JOINT Spine2
      {
        OFFSET -0.0 7.125301 -0.029825
        CHANNELS 3 Zrotation Yrotation Xrotation
        JOINT Chest
        {
          OFFSET -1e-06 7.550063 -0.815971
          CHANNELS 3 Zrotation Yrotation Xrotation
          JOINT Neck1
          {
            OFFSET -0.181677 26.311295 -0.553348
            CHANNELS 3 Zrotation Yrotation Xrotation
            JOINT Neck2
            {
              OFFSET -3e-06 7.709397 2.302585
              CHANNELS 3 Zrotation Yrotation Xrotation
              JOINT Head
              {
                OFFSET -5e-06 6.128916 1.953709
                CHANNELS 3 Zrotation Yrotation Xrotation
                JOINT HeadEnd
                {
                  OFFSET 0.003598 16.065403 -1.835379
                  CHANNELS 3 Zrotation Yrotation Xrotation
                }
                JOINT Jaw
                {
                  OFFSET 0.002637 0.475592 3.094941
                  CHANNELS 3 Zrotation Yrotation Xrotation
                }
                JOINT LeftEye
                {
                  OFFSET 3.206381 5.380205 7.586883
                  CHANNELS 3 Zrotation Yrotation Xrotation
                }
                JOINT RightEye
                {
                  OFFSET -3.22244 5.361869 7.558234
                  CHANNELS 3 Zrotation Yrotation Xrotation
                }
              }
            }
          }
          JOINT LeftShoulder
          {
            OFFSET 1.621652 23.237164 5.113413
            CHANNELS 3 Zrotation Yrotation Xrotation
            JOINT LeftArm
            {
              OFFSET 14.919846 2e-06 -5.502326
              CHANNELS 3 Zrotation Yrotation Xrotation
              JOINT LeftForeArm
              {
                OFFSET 28.739307 0.0 -0.002588
                CHANNELS 3 Zrotation Yrotation Xrotation
                JOINT LeftHand
                {
                  OFFSET 27.093981 -1e-06 0.002609
                  CHANNELS 3 Zrotation Yrotation Xrotation
                  JOINT LeftHandThumb1
                  {
                    OFFSET 2.276482 -1.392045 3.191413
                    CHANNELS 3 Zrotation Yrotation Xrotation
                    JOINT LeftHandThumb2
                    {
                      OFFSET 4.012836 -1.828127 1.641654
                      CHANNELS 3 Zrotation Yrotation Xrotation
                      JOINT LeftHandThumb3
                      {
                        OFFSET 2.798515 0.0 -3e-06
                        CHANNELS 3 Zrotation Yrotation Xrotation
                        JOINT LeftHandThumbEnd
                        {
                          OFFSET 3.180793 -4e-06 4e-06
                          CHANNELS 3 Zrotation Yrotation Xrotation
                        }
                      }
                    }
                  }
                  JOINT LeftHandIndex1
                  {
                    OFFSET 3.247555 -0.531998 2.296169
                    CHANNELS 3 Zrotation Yrotation Xrotation
                    JOINT LeftHandIndex2
                    {
                      OFFSET 6.364578 0.01206 0.1786
                      CHANNELS 3 Zrotation Yrotation Xrotation
                      JOINT LeftHandIndex3
                      {
                        OFFSET 3.662364 0.0 0.0
                        CHANNELS 3 Zrotation Yrotation Xrotation
                        JOINT LeftHandIndex4
                        {
                          OFFSET 2.329242 4e-06 4e-06
                          CHANNELS 3 Zrotation Yrotation Xrotation
                          JOINT LeftHandIndexEnd
                          {
                            OFFSET 2.759615 -0.180537 -0.113024
                            CHANNELS 3 Zrotation Yrotation Xrotation
                          }
                        }
                      }
                    }
                  }
                  JOINT LeftHandMiddle1
                  {
                    OFFSET 3.163495 0.240981 1.000332
                    CHANNELS 3 Zrotation Yrotation Xrotation
                    JOINT LeftHandMiddle2
                    {
                      OFFSET 6.19078 -0.259278 -1.002548
                      CHANNELS 3 Zrotation Yrotation Xrotation
                      JOINT LeftHandMiddle3
                      {
                        OFFSET 4.35652 -4e-06 -1e-06
                        CHANNELS 3 Zrotation Yrotation Xrotation
                        JOINT LeftHandMiddle4
                        {
                          OFFSET 2.996877 -8e-06 0.0
                          CHANNELS 3 Zrotation Yrotation Xrotation
                          JOINT LeftHandMiddleEnd
                          {
                            OFFSET 2.304287 -0.294569 -0.031741
                            CHANNELS 3 Zrotation Yrotation Xrotation
                          }
                        }
                      }
                    }
                  }
                  JOINT LeftHandRing1
                  {
                    OFFSET 2.882643 -0.053652 -0.322543
                    CHANNELS 3 Zrotation Yrotation Xrotation
                    JOINT LeftHandRing2
                    {
                      OFFSET 5.854541 -0.486202 -1.373841
                      CHANNELS 3 Zrotation Yrotation Xrotation
                      JOINT LeftHandRing3
                      {
                        OFFSET 4.350578 0.0 3e-06
                        CHANNELS 3 Zrotation Yrotation Xrotation
                        JOINT LeftHandRing4
                        {
                          OFFSET 2.651321 7e-06 2e-06
                          CHANNELS 3 Zrotation Yrotation Xrotation
                          JOINT LeftHandRingEnd
                          {
                            OFFSET 1.936105 0.077687 -7.1e-05
                            CHANNELS 3 Zrotation Yrotation Xrotation
                          }
                        }
                      }
                    }
                  }
                  JOINT LeftHandPinky1
                  {
                    OFFSET 2.8655 -0.310005 -1.600378
                    CHANNELS 3 Zrotation Yrotation Xrotation
                    JOINT LeftHandPinky2
                    {
                      OFFSET 5.087849 -1.331141 -1.77123
                      CHANNELS 3 Zrotation Yrotation Xrotation
                      JOINT LeftHandPinky3
                      {
                        OFFSET 3.070974 4e-06 0.0
                        CHANNELS 3 Zrotation Yrotation Xrotation
                        JOINT LeftHandPinky4
                        {
                          OFFSET 1.549672 0.0 1e-06
                          CHANNELS 3 Zrotation Yrotation Xrotation
                          JOINT LeftHandPinkyEnd
                          {
                            OFFSET 1.944893 -0.157802 0.057219
                            CHANNELS 3 Zrotation Yrotation Xrotation
                          }
                        }
                      }
                    }
                  }
                }
              }
            }
          }
          JOINT RightShoulder
          {
            OFFSET -1.380118 23.180309 5.214158
            CHANNELS 3 Zrotation Yrotation Xrotation
            JOINT RightArm
            {
              OFFSET -15.037196 1.2e-05 -5.545604
              CHANNELS 3 Zrotation Yrotation Xrotation
              JOINT RightForeArm
              {
                OFFSET -28.736639 2e-06 -0.002597
                CHANNELS 3 Zrotation Yrotation Xrotation
                JOINT RightHand
                {
                  OFFSET -27.133619 -0.0 0.002613
                  CHANNELS 3 Zrotation Yrotation Xrotation
                  JOINT RightHandThumb1
                  {
                    OFFSET -2.274032 -1.383988 3.163127
                    CHANNELS 3 Zrotation Yrotation Xrotation
                    JOINT RightHandThumb2
                    {
                      OFFSET -4.011429 -1.827466 1.640914
                      CHANNELS 3 Zrotation Yrotation Xrotation
                      JOINT RightHandThumb3
                      {
                        OFFSET -2.794935 -4e-06 -3e-06
                        CHANNELS 3 Zrotation Yrotation Xrotation
                        JOINT RightHandThumbEnd
                        {
                          OFFSET -3.183852 4e-06 1e-06
                          CHANNELS 3 Zrotation Yrotation Xrotation
                        }
                      }
                    }
                  }
                  JOINT RightHandIndex1
                  {
                    OFFSET -3.253266 -0.520057 2.282866
                    CHANNELS 3 Zrotation Yrotation Xrotation
                    JOINT RightHandIndex2
                    {
                      OFFSET -6.341917 0.012471 0.178266
                      CHANNELS 3 Zrotation Yrotation Xrotation
                      JOINT RightHandIndex3
                      {
                        OFFSET -3.654871 -8e-06 -0.0
                        CHANNELS 3 Zrotation Yrotation Xrotation
                        JOINT RightHandIndex4
                        {
                          OFFSET -2.327586 0.0 1e-06
                          CHANNELS 3 Zrotation Yrotation Xrotation
                          JOINT RightHandIndexEnd
                          {
                            OFFSET -2.76179 -0.180656 -0.113078
                            CHANNELS 3 Zrotation Yrotation Xrotation
                          }
                        }
                      }
                    }
                  }
                  JOINT RightHandMiddle1
                  {
                    OFFSET -3.168106 0.246593 1.00103
                    CHANNELS 3 Zrotation Yrotation Xrotation
                    JOINT RightHandMiddle2
                    {
                      OFFSET -6.180828 -0.258836 -1.000895
                      CHANNELS 3 Zrotation Yrotation Xrotation
                      JOINT RightHandMiddle3
                      {
                        OFFSET -4.348901 0.0 -0.0
                        CHANNELS 3 Zrotation Yrotation Xrotation
                        JOINT RightHandMiddle4
                        {
                          OFFSET -3.00024 -4e-06 -2e-06
                          CHANNELS 3 Zrotation Yrotation Xrotation
                          JOINT RightHandMiddleEnd
                          {
                            OFFSET -2.30252 -0.29437 -0.031706
                            CHANNELS 3 Zrotation Yrotation Xrotation
                          }
                        }
                      }
                    }
                  }
                  JOINT RightHandRing1
                  {
                    OFFSET -2.88569 -0.067952 -0.308858
                    CHANNELS 3 Zrotation Yrotation Xrotation
                    JOINT RightHandRing2
                    {
                      OFFSET -5.854198 -0.48613 -1.373731
                      CHANNELS 3 Zrotation Yrotation Xrotation
                      JOINT RightHandRing3
                      {
                        OFFSET -4.33881 -4e-06 -0.0
                        CHANNELS 3 Zrotation Yrotation Xrotation
                        JOINT RightHandRing4
                        {
                          OFFSET -2.654903 -4e-06 4e-06
                          CHANNELS 3 Zrotation Yrotation Xrotation
                          JOINT RightHandRingEnd
                          {
                            OFFSET -1.933568 0.077527 -5.2e-05
                            CHANNELS 3 Zrotation Yrotation Xrotation
                          }
                        }
                      }
                    }
                  }
                  JOINT RightHandPinky1
                  {
                    OFFSET -2.866425 -0.342796 -1.584145
                    CHANNELS 3 Zrotation Yrotation Xrotation
                    JOINT RightHandPinky2
                    {
                      OFFSET -5.091371 -1.332055 -1.772385
                      CHANNELS 3 Zrotation Yrotation Xrotation
                      JOINT RightHandPinky3
                      {
                        OFFSET -3.062664 -4e-06 1e-06
                        CHANNELS 3 Zrotation Yrotation Xrotation
                        JOINT RightHandPinky4
                        {
                          OFFSET -1.546529 4e-06 -2e-06
                          CHANNELS 3 Zrotation Yrotation Xrotation
                          JOINT RightHandPinkyEnd
                          {
                            OFFSET -1.945119 -0.157718 0.057211
                            CHANNELS 3 Zrotation Yrotation Xrotation
                          }
                        }
                      }
                    }
                  }
                }
              }
            }
          }
        }
      }
    }
    JOINT LeftLeg
    {
      OFFSET 10.043214 -8.434526 2.595655
      CHANNELS 3 Zrotation Yrotation Xrotation
      JOINT LeftShin
      {
        OFFSET -1e-06 -43.221752 -0.802913
        CHANNELS 3 Zrotation Yrotation Xrotation
        JOINT LeftFoot
        {
          OFFSET 1e-06 -42.155094 -3.481523
          CHANNELS 3 Zrotation Yrotation Xrotation
          JOINT LeftToeBase
          {
            OFFSET 0.0 -5.059472 13.231529
            CHANNELS 3 Zrotation Yrotation Xrotation
            JOINT LeftToeEnd
            {
              OFFSET -0.009607 -1.647619 6.513017
              CHANNELS 3 Zrotation Yrotation Xrotation
            }
          }
        }
      }
    }
    JOINT RightLeg
    {
      OFFSET -10.047278 -8.29526 2.620317
      CHANNELS 3 Zrotation Yrotation Xrotation
      JOINT RightShin
      {
        OFFSET 1e-06 -43.362206 -0.805556
        CHANNELS 3 Zrotation Yrotation Xrotation
        JOINT RightFoot
        {
          OFFSET 2e-06 -42.117393 -3.478398
          CHANNELS 3 Zrotation Yrotation Xrotation
          JOINT RightToeBase
          {
            OFFSET -0.0 -5.079609 13.284196
            CHANNELS 3 Zrotation Yrotation Xrotation
            JOINT RightToeEnd
            {
              OFFSET 0.009532 -1.634378 6.460591
              CHANNELS 3 Zrotation Yrotation Xrotation
            }
          }
        }
      }
    }
  }
}
MOTION
Frames: 4
Frame Time: 0.03333333333333333
0.0 0.0 0.0 0.0 -0.0 0.0 -5.614604 98.952049 -2.090488 -0.978149 -0.935075 1.949206 3.453388 0.201281 2.295314 0.553035 1.709389 -3.74895 0.990701 0.285268 12.42995 -7.226126 3.526966 -5.1287 -0.152781 1.941675 -3.462349 4.039308 0.392772 -21.269831 7.7e-05 -2.3e-05 6e-06 -0.005225 -0.016365 0.009479 0.67735 -3.803676 -10.574371 -0.690675 3.783864 -10.597011 -6.607334 -5.681214 15.993554 -70.499161 -12.585129 23.634024 -0.097491 -24.148899 0.294147 -2.971068 2.098961 -4.881611 -5.882108 9.86129 0.70259 -10.936874 -0.360575 7.156209 1e-06 8.774828 0.0 -16.430149 18.339684 6.407206 -1.844033 2.498505 -2.507278 -10.163603 4.678946 4.621109 -20.976028 -2e-06 3e-06 -21.22629 2.451699 -3.594001 0.0 -4e-06 -2e-06 -1.362682 2.240799 -0.746323 -21.334919 0.584911 3.008324 -13.821217 -1e-06 2e-06 -23.887175 -0.249076 -0.839482 -61.610138 2.189022 -1.000819 -0.294025 1.679688 0.833257 -14.218212 0.093215 1.300584 -34.212059 -0.287562 0.967171 -20.033218 0.964539 1.212844 0.0 -0.0 -0.0 -3.440389 0.788234 0.501654 -15.928192 -3.16731 2.999709 -6.338827 -1e-06 -0.0 -18.123457 3.648183 -4.905674 -4e-06 -1e-06 -2e-06 2.295159 16.322262 15.842308 73.887184 -2.500944 4.066086 1.047767 42.343243 1.287866 -11.615855 14.150872 -11.107655 2.243542 -5.255039 -3.180159 14.282896 -0.826595 6.952507 -1e-06 -12.69061 0.0 16.239645 -17.365269 2.375716 1.665666 -1.955923 -2.878299 4.727801 -4.170589 4.993926 11.020528 3e-06 -0.0 12.109055 -3.735717 -2.866785 1e-06 0.0 1e-06 1.291985 -1.92855 -1.498091 14.800134 0.567468 3.865611 14.242577 -1.341738 -6.660658 19.631973 0.143923 -0.648243 49.676506 -0.703808 -6.021761 0.353029 -1.511149 -0.03194 20.222797 3.684311 2.316633 18.787283 4e-06 0.0 10.751633 -0.479871 1.397906 1e-06 -0.0 0.0 3.273808 0.305946 -0.58011 21.48682 11.83038 2.266138 8.16293 0.0 0.0 18.399088 -3.798989 -4.940575 4e-06 -0.0 -0.0 5.346659 -3.795448 -20.078569 0.056703 0.234672 35.994011 -12.243334 10.956348 -5.914952 1.850496 -2.243902 -3.792438 0.0 -0.0 2e-06 1.542934 1.448975 -14.118374 -0.14905 0.145976 25.112293 -1.797289 6.851692 -9.374075 -1.437414 0.905052 -0.59982 0.0 -0.0 -1e-06 
0.0 0.0 0.0 0.0 -0.0 0.0 -5.68237 98.294868 -2.205939 -0.979774 -2.156496 1.613479 3.796724 0.377683 3.40179 0.768564 2.175733 -3.3108 1.009667 0.68536 12.677209 -7.967758 3.763493 -6.204663 -0.263777 1.936503 -3.449555 3.78932 0.21131 -22.276897 7.7e-05 -2.2e-05 6e-06 0.008957 0.040797 0.016967 0.676345 -3.756535 -10.532178 -0.660742 3.847745 -10.556652 -7.038048 -4.997867 15.968106 -71.818146 -10.333395 21.832083 -0.492578 -25.069324 0.442583 -3.32054 1.265929 -4.806751 -5.88211 9.861289 0.702591 -10.936878 -0.360575 7.15621 1e-06 8.774829 -1e-06 -16.593447 18.231171 6.267461 -1.844033 2.498505 -2.507279 -10.163605 4.678947 4.621111 -20.976034 -3e-06 4e-06 -21.226295 2.451698 -3.594 -0.0 -5e-06 -1e-06 -1.362682 2.240799 -0.746324 -21.334925 0.58491 3.008324 -13.821221 -2e-06 2e-06 -23.887184 -0.249079 -0.839482 -61.747272 2.110429 -0.714554 -0.294025 1.679688 0.833258 -14.218218 0.093215 1.300583 -34.212074 -0.287564 0.967173 -20.033228 0.964537 1.212845 -1e-06 -2e-06 -0.0 -3.440391 0.788234 0.501657 -15.928198 -3.167311 2.999707 -6.338832 -1e-06 2e-06 -18.123459 3.648183 -4.905672 -5e-06 0.0 -2e-06 1.746613 17.022171 16.16258 73.716759 -3.971735 3.990271 1.340098 46.707111 1.486608 -13.068309 14.137223 -12.471171 2.243544 -5.255041 -3.180162 14.282904 -0.826595 6.952509 -3e-06 -12.690616 1e-06 16.288599 -17.397701 2.348899 1.665668 -1.955922 -2.878303 4.727803 -4.170592 4.99393 11.020536 5e-06 -3e-06 12.109061 -3.735717 -2.866787 -0.0 0.0 1e-06 1.291986 -1.92855 -1.498092 14.800142 0.567468 3.865609 14.242588 -1.341735 -6.660666 19.631989 0.14393 -0.648247 49.830437 -0.70459 -6.03606 0.353029 -1.51115 -0.031941 20.222809 3.684313 2.316631 18.787291 7e-06 -2e-06 10.751637 -0.479869 1.397906 1e-06 -0.0 0.0 3.27381 0.305947 -0.580113 21.486834 11.830386 2.266131 8.162935 2e-06 -1e-06 18.399099 -3.798988 -4.940581 4e-06 -1e-06 -1e-06 5.606652 -5.386385 -25.691458 -0.031309 0.040088 49.105175 -14.517793 11.029928 -4.706222 1.914956 -2.299584 -4.647035 -0.0 0.0 2e-06 1.523026 0.50841 -15.37813 -0.073323 0.157026 28.054947 -2.000417 8.675904 -11.068868 -1.449643 0.794342 -0.112016 0.0 -0.0 -1e-06 
0.0 0.0 0.0 0.0 -0.0 0.0 -5.682296 97.315956 -2.351097 -0.810977 -4.27377 0.913672 4.005843 0.637656 4.762065 0.947642 2.475716 -2.806907 1.0616 1.462369 13.139508 -8.953173 3.971003 -7.41162 -0.237781 1.989066 -3.456332 3.437836 0.258105 -23.059223 7.7e-05 -2.2e-05 6e-06 0.003355 0.030814 0.024614 0.655634 -3.773351 -10.513717 -0.651162 3.839148 -10.528132 -7.716777 -4.327496 16.271006 -73.144676 -7.371614 19.470284 -0.629641 -27.276894 0.459426 -3.740961 0.022842 -6.110428 -5.882112 9.861292 0.702592 -10.936881 -0.360576 7.156209 0.0 8.774831 0.0 -16.853651 18.295399 5.995331 -1.844034 2.498506 -2.507278 -10.163609 4.678948 4.62111 -20.97604 -4e-06 -1e-06 -21.226307 2.451698 -3.594004 -1e-06 -7e-06 -1e-06 -1.362683 2.240799 -0.746324 -21.334934 0.58491 3.008323 -13.821226 -2e-06 1e-06 -23.88719 -0.249079 -0.839485 -61.700043 2.170065 -0.868131 -0.294025 1.679688 0.833255 -14.218222 0.093215 1.300579 -34.212082 -0.287565 0.967168 -20.033232 0.964536 1.212843 0.0 0.0 -0.0 -3.440391 0.788234 0.501656 -15.928201 -3.167311 2.999707 -6.338833 -1e-06 1e-06 -18.123463 3.648184 -4.905674 -4e-06 -0.0 -2e-06 0.831616 17.930902 16.257608 73.207085 -4.488783 4.651829 1.532651 53.084995 1.607952 -14.524904 13.782248 -13.938706 2.243542 -5.25504 -3.180161 14.282896 -0.826596 6.952504 -2e-06 -12.690612 0.0 16.349569 -17.446569 2.270745 1.665668 -1.955923 -2.8783 4.7278 -4.170589 4.993926 11.020532 4e-06 -2e-06 12.109056 -3.735717 -2.866788 0.0 -1e-06 1e-06 1.291986 -1.928551 -1.49809 14.800136 0.567469 3.865608 14.242579 -1.341736 -6.660662 19.631975 0.143929 -0.648247 49.839092 -0.757495 -6.179898 0.353029 -1.51115 -0.03194 20.222801 3.684314 2.316627 18.787279 7e-06 -2e-06 10.75163 -0.479868 1.397906 2e-06 1e-06 -0.0 3.273808 0.305947 -0.580111 21.48682 11.830383 2.266133 8.16293 1e-06 -2e-06 18.399088 -3.798986 -4.940581 4e-06 0.0 -1e-06 5.43715 -7.274314 -31.954573 -0.116554 -0.11354 66.451523 -14.725739 11.842369 -3.929385 2.061398 -2.345903 -3.814398 0.0 -0.0 3e-06 1.264453 -0.435414 -17.303024 0.009192 0.194004 32.940598 -2.518152 11.2666 -12.998497 -1.460559 0.72473 0.032393 -0.0 -0.0 -1e-06 
0.0 0.0 0.0 0.0 -0.0 0.0 -5.663764 95.980362 -2.5049 -0.816994 -6.821823 -0.084345 4.250619 0.821408 6.082622 1.077585 2.698681 -2.292583 1.133413 2.225727 13.844578 -10.047254 4.115659 -8.62714 -0.131111 2.241383 -3.439465 3.283639 0.472864 -23.721294 7.7e-05 -2.2e-05 6e-06 0.000668 0.024413 0.023841 0.627896 -3.777117 -10.457322 -0.630135 3.827185 -10.468246 -8.824873 -3.42087 16.753561 -73.867905 -4.637908 18.010017 -0.694239 -29.513807 0.350114 -4.048893 -1.796716 -7.828429 -5.882108 9.86129 0.702593 -10.936875 -0.360574 7.156205 0.0 8.774828 -0.0 -16.920061 18.339439 5.907331 -1.844033 2.498505 -2.507277 -10.163604 4.678946 4.621108 -20.97603 -1e-06 0.0 -21.226294 2.4517 -3.594003 -2e-06 -6e-06 -0.0 -1.362682 2.240799 -0.746324 -21.334921 0.584909 3.008321 -13.82122 -3e-06 1e-06 -23.887184 -0.24908 -0.839485 -61.645435 2.30901 -1.092242 -0.294025 1.679688 0.833256 -14.218214 0.093215 1.30058 -34.212059 -0.287562 0.967168 -20.033216 0.964536 1.212841 -1e-06 -0.0 -0.0 -3.44039 0.788234 0.501656 -15.928189 -3.16731 2.999707 -6.338828 -1e-06 0.0 -18.123453 3.648184 -4.905673 -4e-06 1e-06 -2e-06 -0.203872 18.931053 16.2136 72.068512 -2.842159 6.061048 1.888575 60.09404 1.815919 -15.581975 13.686165 -15.077204 2.243543 -5.255041 -3.18016 14.282896 -0.826596 6.952505 -2e-06 -12.690611 -1e-06 16.307814 -17.393686 2.228863 1.665667 -1.955922 -2.8783 4.727801 -4.170591 4.993925 11.020531 4e-06 -1e-06 12.109056 -3.735717 -2.866786 1e-06 1e-06 -0.0 1.291986 -1.92855 -1.49809 14.800132 0.567469 3.865609 14.242579 -1.341736 -6.66066 19.631973 0.143927 -0.648245 49.68602 -0.797936 -6.300861 0.353029 -1.511151 -0.031939 20.222797 3.684312 2.316631 18.787283 5e-06 -1e-06 10.751634 -0.47987 1.397906 2e-06 1e-06 0.0 3.273808 0.305947 -0.580111 21.486824 11.830381 2.266135 8.16293 3e-06 -0.0 18.39909 -3.798986 -4.940579 3e-06 1e-06 1e-06 5.249194 -8.241456 -38.18734 -0.283406 -0.194479 84.811699 -13.656671 12.431731 -3.258781 2.17467 -2.328505 -3.05713 0.0 0.0 0.0 1.2202 -0.867639 -19.163366 0.065924 0.246335 38.277351 -3.314954 13.592776 -15.344849 -1.466762 0.731555 -0.007383 -0.0 -0.0 -1e-06 
